<svg xmlns="http://www.w3.org/2000/svg" viewBox="0 0 128 128">
  <defs>
    <linearGradient id="grad" x1="0%" y1="0%" x2="100%" y2="100%">
      <stop offset="0%" style="stop-color:#667eea;stop-opacity:1" />
      <stop offset="100%" style="stop-color:#764ba2;stop-opacity:1" />
    </linearGradient>
  </defs>

  <!-- Background circle -->
  <circle cx="64" cy="64" r="60" fill="url(#grad)"/>

  <!-- Document icon -->
  <g fill="white">
    <!-- Main document -->
    <path d="M44 24h28l16 16v60c0 2.2-1.8 4-4 4H44c-2.2 0-4-1.8-4-4V28c0-2.2 1.8-4 4-4z"/>

    <!-- Folded corner -->
    <path d="M72 24v12c0 2.2 1.8 4 4 4h12" fill="none" stroke="white" stroke-width="2"/>

    <!-- Lines representing text -->
    <rect x="48" y="52" width="32" height="3" rx="1" fill="#667eea"/>
    <rect x="48" y="60" width="28" height="3" rx="1" fill="#667eea"/>
    <rect x="48" y="68" width="32" height="3" rx="1" fill="#667eea"/>
    <rect x="48" y="76" width="24" height="3" rx="1" fill="#667eea"/>
    <rect x="48" y="84" width="30" height="3" rx="1" fill="#667eea"/>
  </g>

  <!-- Sparkle/AI indicator -->
  <g fill="#FFD700">
    <circle cx="96" cy="32" r="8"/>
    <path d="M96 20v24M84 32h24" stroke="#FFD700" stroke-width="3" stroke-linecap="round"/>
  </g>
</svg>
